<?xml version="1.0" encoding="UTF-8" standalone="no"?>
<!-- Created with Inkscape (http://www.inkscape.org/) -->

<svg
   xmlns:dc="http://purl.org/dc/elements/1.1/"
   xmlns:cc="http://creativecommons.org/ns#"
   xmlns:rdf="http://www.w3.org/1999/02/22-rdf-syntax-ns#"
   xmlns:svg="http://www.w3.org/2000/svg"
   xmlns="http://www.w3.org/2000/svg"
   xmlns:sodipodi="http://sodipodi.sourceforge.net/DTD/sodipodi-0.dtd"
   xmlns:inkscape="http://www.inkscape.org/namespaces/inkscape"
   id="svg2"
   version="1.1"
   inkscape:version="0.91 r13725"
   xml:space="preserve"
   width="74.124161"
   height="19.435553"
   viewBox="0 0 74.124161 19.435553"
   sodipodi:docname="gpslogoonlysmall.svg"
   inkscape:export-filename="/Users/Betsy/Documents/GPS Website/Images/gpslogoonly.png"
   inkscape:export-xdpi="300"
   inkscape:export-ydpi="300"><metadata
     id="metadata8"><rdf:RDF><cc:Work
         rdf:about=""><dc:format>image/svg+xml</dc:format><dc:type
           rdf:resource="http://purl.org/dc/dcmitype/StillImage" /><dc:title></dc:title></cc:Work></rdf:RDF></metadata><defs
     id="defs6"><clipPath
       clipPathUnits="userSpaceOnUse"
       id="clipPath80"><path
         d="M 0,864 2592,864 2592,0 0,0 0,864 Z"
         id="path82"
         inkscape:connector-curvature="0" /></clipPath></defs><sodipodi:namedview
     pagecolor="#ffffff"
     bordercolor="#666666"
     borderopacity="1"
     objecttolerance="10"
     gridtolerance="10"
     guidetolerance="10"
     inkscape:pageopacity="0"
     inkscape:pageshadow="2"
     inkscape:window-width="985"
     inkscape:window-height="593"
     id="namedview4"
     showgrid="false"
     inkscape:zoom="1"
     inkscape:cx="58.860709"
     inkscape:cy="20.631107"
     inkscape:window-x="61"
     inkscape:window-y="64"
     inkscape:window-maximized="0"
     inkscape:current-layer="g7674"
     fit-margin-top="0"
     fit-margin-left="0"
     fit-margin-right="0"
     fit-margin-bottom="0" /><g
     id="g10"
     inkscape:groupmode="layer"
     inkscape:label="GPS Logo"
     transform="matrix(1.25,0,0,-1.25,-4.835656,66.080213)"><g
       id="g7709"
       transform="translate(0.66005488,0)"><g
         inkscape:export-ydpi="304.33041"
         inkscape:export-xdpi="304.33041"
         inkscape:export-filename="/Users/Betsy/Documents/GPS Website/modern business layout/images/gpslogoonlysmall.png"
         transform="matrix(0.36311337,0,0,0.36311337,-388.31266,-112.99455)"
         style="stroke:#ffffff;stroke-width:0.22031687;stroke-miterlimit:4;stroke-dasharray:none;stroke-opacity:1"
         id="g7674"><g
           style="stroke:#ffffff;stroke-width:3.05538106;stroke-miterlimit:4;stroke-dasharray:none;stroke-opacity:1"
           id="g12"
           transform="matrix(0.07210782,0,0,0.07210782,1211.8027,451.89006)"><path
             d="M 0,0 -59.282,0 0,-62.308 0,0 Z"
             style="fill:#6d6f71;fill-opacity:1;fill-rule:nonzero;stroke:#ffffff;stroke-width:3.05538106;stroke-miterlimit:4;stroke-dasharray:none;stroke-opacity:1"
             id="path14"
             inkscape:connector-curvature="0" /></g><g
           style="stroke:#ffffff;stroke-width:3.05538106;stroke-miterlimit:4;stroke-dasharray:none;stroke-opacity:1"
           id="g16"
           transform="matrix(0.07210782,0,0,0.07210782,1232.7337,425.39805)"><path
             d="M 0,0 59.279,-62.316 59.279,0 0,0 Z"
             style="fill:#6d6f71;fill-opacity:1;fill-rule:nonzero;stroke:#ffffff;stroke-width:3.05538106;stroke-miterlimit:4;stroke-dasharray:none;stroke-opacity:1"
             id="path18"
             inkscape:connector-curvature="0" /></g><g
           style="stroke:#ffffff;stroke-width:3.05538106;stroke-miterlimit:4;stroke-dasharray:none;stroke-opacity:1"
           id="g20"
           transform="matrix(0.07210782,0,0,0.07210782,1216.2619,442.70991)"><path
             d="m 0,0 62.493,58.962 -124.333,130.665 0,0.008 0,-62.323 0,-62.309 L 0,0 Z"
             style="fill:#231f20;fill-opacity:1;fill-rule:nonzero;stroke:#ffffff;stroke-width:3.05538106;stroke-miterlimit:4;stroke-dasharray:none;stroke-opacity:1"
             id="path22"
             inkscape:connector-curvature="0" /></g><g
           style="stroke:#ffffff;stroke-width:3.05538106;stroke-miterlimit:4;stroke-dasharray:none;stroke-opacity:1"
           id="g24"
           transform="matrix(0.07210782,0,0,0.07210782,1233.3667,433.71974)"><path
             d="m 0,0 -62.464,-58.967 53.686,-56.439 59.279,0 59.311,0 L 0,0 Z"
             style="fill:#231f20;fill-opacity:1;fill-rule:nonzero;stroke:#ffffff;stroke-width:3.05538106;stroke-miterlimit:4;stroke-dasharray:none;stroke-opacity:1"
             id="path26"
             inkscape:connector-curvature="0" /></g><g
           style="stroke:#ffffff;stroke-width:3.05538106;stroke-miterlimit:4;stroke-dasharray:none;stroke-opacity:1"
           id="g28"
           transform="matrix(0.07210782,0,0,0.07210782,1216.2619,442.70991)"><path
             d="m 0,0 -61.84,65.003 -59.282,62.309 0,-241.639 L 0,0 Z"
             style="fill:#939598;fill-opacity:1;fill-rule:nonzero;stroke:#ffffff;stroke-width:3.05538106;stroke-miterlimit:4;stroke-dasharray:none;stroke-opacity:1"
             id="path30"
             inkscape:connector-curvature="0" /></g><g
           style="stroke:#ffffff;stroke-width:3.05538106;stroke-miterlimit:4;stroke-dasharray:none;stroke-opacity:1"
           id="g32"
           transform="matrix(0.07210782,0,0,0.07210782,1228.8626,429.46777)"><path
             d="m 0,0 -125.854,-118.77 238.85,0 -0.031,0.014 L 53.686,-56.439 0,0 Z"
             style="fill:#939598;fill-opacity:1;fill-rule:nonzero;stroke:#ffffff;stroke-width:3.05538106;stroke-miterlimit:4;stroke-dasharray:none;stroke-opacity:1"
             id="path34"
             inkscape:connector-curvature="0" /></g><g
           style="stroke:#ffffff;stroke-width:3.05538106;stroke-miterlimit:4;stroke-dasharray:none;stroke-opacity:1"
           id="g36"
           transform="matrix(0.07210782,0,0,0.07210782,1241.285,456.38353)"><path
             d="m 0,0 -408.863,0 124.333,-130.665 -287.498,-271.338 173.996,-184.33 288.22,272.029 L 0,-429.71 0,0 Z"
             style="fill:#414142;fill-opacity:1;fill-rule:nonzero;stroke:#ffffff;stroke-width:3.05538106;stroke-miterlimit:4;stroke-dasharray:none;stroke-opacity:1"
             id="path38"
             inkscape:connector-curvature="0" /></g></g><g
         style="stroke:#ffffff;stroke-width:3.05538154;stroke-miterlimit:4;stroke-dasharray:none;stroke-opacity:1"
         inkscape:export-ydpi="304.33041"
         inkscape:export-xdpi="304.33041"
         inkscape:export-filename="/Users/Betsy/Documents/GPS Website/modern business layout/images/gpslogoonlysmall.png"
         transform="matrix(0.02618331,0,0,0.02618331,44.133115,43.763196)"
         id="g40"><path
           inkscape:connector-curvature="0"
           id="path42"
           style="fill:#bf1e2d;fill-opacity:1;fill-rule:nonzero;stroke:#ffffff;stroke-width:3.05538154;stroke-miterlimit:4;stroke-dasharray:none;stroke-opacity:1"
           d="m 0,0 -139.272,-139.272 -346.907,0 0,-91.69 381.509,0 L 0,-127.146 0,0 Z" /></g><g
         style="stroke:#ffffff;stroke-width:3.05538154;stroke-miterlimit:4;stroke-dasharray:none;stroke-opacity:1"
         inkscape:export-ydpi="304.33041"
         inkscape:export-xdpi="304.33041"
         inkscape:export-filename="/Users/Betsy/Documents/GPS Website/modern business layout/images/gpslogoonlysmall.png"
         transform="matrix(0.02618331,0,0,0.02618331,7.3256564,40.116584)"
         id="g44"><path
           inkscape:connector-curvature="0"
           id="path46"
           style="fill:#bf1e2d;fill-opacity:1;fill-rule:nonzero;stroke:#ffffff;stroke-width:3.05538154;stroke-miterlimit:4;stroke-dasharray:none;stroke-opacity:1"
           d="m 0,0 0,340.863 -155.717,-155.731 0,-173.005 103.816,-103.816 383.226,0 0,230.961 L 192.916,0 0,0 Z" /></g><g
         style="stroke:#ffffff;stroke-width:3.05538154;stroke-miterlimit:4;stroke-dasharray:none;stroke-opacity:1"
         inkscape:export-ydpi="304.33041"
         inkscape:export-xdpi="304.33041"
         inkscape:export-filename="/Users/Betsy/Documents/GPS Website/modern business layout/images/gpslogoonlysmall.png"
         transform="matrix(0.02618331,0,0,0.02618331,3.2484855,50.106078)"
         id="g48"><path
           inkscape:connector-curvature="0"
           id="path50"
           style="fill:#231f20;fill-opacity:1;fill-rule:nonzero;stroke:#ffffff;stroke-width:3.05538154;stroke-miterlimit:4;stroke-dasharray:none;stroke-opacity:1"
           d="m 0,0 0,-127.168 138.412,138.418 348.63,0 0,92.56 -383.226,0 L 0,0 Z" /></g><g
         style="stroke:#ffffff;stroke-width:3.05538154;stroke-miterlimit:4;stroke-dasharray:none;stroke-opacity:1"
         inkscape:export-ydpi="304.33041"
         inkscape:export-xdpi="304.33041"
         inkscape:export-filename="/Users/Betsy/Documents/GPS Website/modern business layout/images/gpslogoonlysmall.png"
         transform="matrix(0.02618331,0,0,0.02618331,9.7265364,45.394463)"
         id="g52"><path
           inkscape:connector-curvature="0"
           id="path54"
           style="fill:#bf1e2d;fill-opacity:1;fill-rule:nonzero;stroke:#ffffff;stroke-width:3.05538154;stroke-miterlimit:4;stroke-dasharray:none;stroke-opacity:1"
           d="m 0,0 83.914,0 0,-148.781 155.714,155.699 0,84.786 L 0,91.704 0,0 Z" /></g><g
         style="stroke:#ffffff;stroke-width:3.05538154;stroke-miterlimit:4;stroke-dasharray:none;stroke-opacity:1"
         inkscape:export-ydpi="304.33041"
         inkscape:export-xdpi="304.33041"
         inkscape:export-filename="/Users/Betsy/Documents/GPS Website/modern business layout/images/gpslogoonlysmall.png"
         transform="matrix(0.02618331,0,0,0.02618331,17.563797,52.824157)"
         id="g56"><path
           inkscape:connector-curvature="0"
           id="path58"
           style="fill:#231f20;fill-opacity:1;fill-rule:nonzero;stroke:#ffffff;stroke-width:3.05538154;stroke-miterlimit:4;stroke-dasharray:none;stroke-opacity:1"
           d="m 0,0 0,-230.978 138.41,138.418 207.625,0 138.425,-138.418 0,127.168 L 380.645,0 0,0 Z" /></g><g
         style="stroke:#ffffff;stroke-width:3.05538154;stroke-miterlimit:4;stroke-dasharray:none;stroke-opacity:1"
         inkscape:export-ydpi="304.33041"
         inkscape:export-xdpi="304.33041"
         inkscape:export-filename="/Users/Betsy/Documents/GPS Website/modern business layout/images/gpslogoonlysmall.png"
         transform="matrix(0.02618331,0,0,0.02618331,26.28455,45.031754)"
         id="g60"><path
           inkscape:connector-curvature="0"
           id="path62"
           style="fill:#bf1e2d;fill-opacity:1;fill-rule:nonzero;stroke:#ffffff;stroke-width:3.05538154;stroke-miterlimit:4;stroke-dasharray:none;stroke-opacity:1"
           d="m 0,0 -84.79,-84.769 134.959,0 L 143.6,8.66 0,153.141 0,0 Z" /></g><g
         style="stroke:#ffffff;stroke-width:3.05538154;stroke-miterlimit:4;stroke-dasharray:none;stroke-opacity:1"
         inkscape:export-ydpi="304.33041"
         inkscape:export-xdpi="304.33041"
         inkscape:export-filename="/Users/Betsy/Documents/GPS Website/modern business layout/images/gpslogoonlysmall.png"
         transform="matrix(0.02618331,0,0,0.02618331,17.563797,37.715852)"
         id="g64"><path
           inkscape:connector-curvature="0"
           id="path66"
           style="fill:#bf1e2d;fill-opacity:1;fill-rule:nonzero;stroke:#ffffff;stroke-width:3.05538154;stroke-miterlimit:4;stroke-dasharray:none;stroke-opacity:1"
           d="m 0,0 155.715,0 0,432.552 L 0,276.821 0,0 Z" /></g><g
         style="stroke:#ffffff;stroke-width:3.05538154;stroke-miterlimit:4;stroke-dasharray:none;stroke-opacity:1"
         inkscape:export-ydpi="304.33041"
         inkscape:export-xdpi="304.33041"
         inkscape:export-filename="/Users/Betsy/Documents/GPS Website/modern business layout/images/gpslogoonlysmall.png"
         transform="matrix(0.02618331,0,0,0.02618331,44.133115,50.400643)"
         id="g68"><path
           inkscape:connector-curvature="0"
           id="path70"
           style="fill:#231f20;fill-opacity:1;fill-rule:nonzero;stroke:#ffffff;stroke-width:3.05538154;stroke-miterlimit:4;stroke-dasharray:none;stroke-opacity:1"
           d="m 0,0 0,92.56 -382.363,0 -103.816,-103.81 0,-127.168 L -347.77,0 0,0 Z" /></g><g
         style="stroke:#ffffff;stroke-width:3.05538154;stroke-miterlimit:4;stroke-dasharray:none;stroke-opacity:1"
         inkscape:export-ydpi="304.33041"
         inkscape:export-xdpi="304.33041"
         inkscape:export-filename="/Users/Betsy/Documents/GPS Website/modern business layout/images/gpslogoonlysmall.png"
         transform="matrix(0.02618331,0,0,0.02618331,40.033382,41.498876)"
         id="g72"><path
           inkscape:connector-curvature="0"
           id="path74"
           style="fill:#bf1e2d;fill-opacity:1;fill-rule:nonzero;stroke:#ffffff;stroke-width:3.05538154;stroke-miterlimit:4;stroke-dasharray:none;stroke-opacity:1"
           d="m 0,0 156.579,155.699 0,38.064 -330.463,0 0,94.307 -155.716,-155.731 0,-31.128 329.6,0 L 0,0 Z" /></g></g><g
       id="g76"><g
         id="g78"
         clip-path="url(#clipPath80)" /></g></g></svg>